<?xml version="1.0" standalone="no"?>
<!DOCTYPE svg PUBLIC "-//W3C//DTD SVG 20010904//EN"
 "http://www.w3.org/TR/2001/REC-SVG-20010904/DTD/svg10.dtd">
<svg version="1.0" xmlns="http://www.w3.org/2000/svg"
 width="300.000000pt" height="300.000000pt" viewBox="0 0 300.000000 300.000000"
 preserveAspectRatio="xMidYMid meet">
<metadata>
Created by potrace 1.10, written by Peter Selinger 2001-2011
</metadata>
<g transform="translate(0.000000,300.000000) scale(0.100000,-0.100000)"
fill="#000000" stroke="none">
<path d="M1438 1810 l3 -610 -72 0 -71 0 4 120 3 120 -167 0 -168 0 0 -120 0
-120 -65 0 -65 0 0 300 0 300 65 0 65 0 0 -120 0 -120 168 0 167 0 0 365 0
365 -298 0 -298 0 3 -677 3 -678 28 -57 c30 -61 74 -105 140 -140 40 -22 55
-23 297 -26 l255 -3 68 -67 68 -67 -3 613 -3 612 70 0 70 0 67 -109 c37 -60
71 -116 74 -125 4 -9 10 -16 15 -14 5 2 42 57 82 123 l74 120 71 3 72 3 0
-301 0 -300 -65 0 -65 0 -2 194 -3 194 -79 -124 c-44 -68 -82 -124 -86 -124
-3 0 -41 56 -85 125 -43 69 -80 125 -82 125 -2 0 -3 -198 -3 -440 l0 -440 300
0 301 0 -3 683 -3 682 -27 50 c-31 60 -77 104 -138 136 -43 23 -54 24 -300 27
l-255 3 -65 64 -65 65 3 -610z m90 466 c22 -20 37 -21 285 -26 l262 -5 48 -28
c56 -33 99 -89 116 -149 8 -31 11 -214 9 -678 l-3 -635 -252 -3 -252 -2 -6 32
c-3 18 -5 162 -3 321 2 158 0 287 -4 287 -5 0 -7 19 -6 43 1 41 1 41 6 7 l5
-35 7 30 8 30 1 -32 c1 -24 12 -43 49 -77 26 -25 54 -46 63 -46 17 0 94 78 85
87 -3 3 2 12 10 20 8 8 11 20 7 26 -3 7 -2 9 2 4 5 -4 17 1 28 10 19 17 20 17
8 -4 -6 -13 -17 -23 -24 -24 -7 0 -1 -5 13 -10 21 -9 23 -12 10 -22 -12 -10
-14 -29 -10 -99 6 -112 23 -133 106 -133 49 0 59 4 80 28 l24 28 0 279 0 279
-24 28 c-22 25 -31 28 -84 28 -90 0 -96 -5 -195 -162 -15 -24 -31 -43 -35 -43
-4 0 -30 37 -59 83 -73 116 -81 122 -165 122 -102 0 -108 -10 -108 -175 0
-139 -8 -220 -21 -220 -5 0 -9 10 -9 23 0 13 -6 29 -12 35 -10 10 -13 109 -15
400 -2 213 -1 393 2 400 5 15 19 9 53 -22z m-263 -48 c8 -35 0 -602 -9 -616
-10 -17 -217 -17 -234 0 -7 7 -12 44 -12 92 -1 111 -15 130 -100 131 -56 0
-64 -3 -86 -29 l-25 -28 3 -283 c3 -259 5 -285 22 -303 36 -41 128 -40 166 0
17 18 20 36 20 106 0 75 2 84 20 89 11 3 20 11 20 17 0 7 7 13 15 13 8 0 15
-6 15 -13 0 -7 8 -10 19 -7 10 3 30 -1 42 -8 l24 -12 -20 23 -20 23 22 -12
c12 -6 32 -11 45 -10 23 1 23 1 -2 9 l-25 8 28 1 c18 1 27 -4 27 -14 0 -8 6
-15 14 -15 24 0 30 -21 32 -103 3 -109 35 -139 135 -122 55 9 71 37 74 128 2
77 25 137 52 137 12 0 13 -3 4 -14 -9 -11 -9 -15 1 -19 8 -3 6 -6 -5 -6 -14
-1 -16 -5 -7 -20 14 -27 14 -667 -1 -676 -6 -4 -20 2 -32 13 -44 40 -60 42
-295 42 -260 0 -296 7 -360 69 -81 79 -77 36 -80 761 -1 354 0 650 2 657 4 10
62 13 255 13 l251 0 5 -22z m225 -789 c0 -38 -4 -49 -16 -49 -12 0 -15 10 -12
54 4 70 28 66 28 -5z"/>
</g>
</svg>
